<svg width="24" height="24" viewBox="0 0 24 24" fill="none" xmlns="http://www.w3.org/2000/svg">
<path d="M13 5H15V6H16V7H17V8H18V9H19V11H22V13H19V15H18V16H17V17H16V18H15V19H13V22H11V19H9V18H8V17H7V16H6V15H5V13H2V11H5V9H6V8H7V7H8V6H9V5H11V2H13V5Z" fill="black"/>
<path d="M6 20H4V18H6V20Z" fill="black"/>
<path d="M20 20H18V18H20V20Z" fill="black"/>
<path d="M7 18H6V17H7V18Z" fill="black"/>
<path d="M18 18H17V17H18V18Z" fill="black"/>
<path d="M7 7H6V6H7V7Z" fill="black"/>
<path d="M18 7H17V6H18V7Z" fill="black"/>
<path d="M6 6H4V4H6V6Z" fill="black"/>
<path d="M20 6H18V4H20V6Z" fill="black"/>
<path d="M10 9H11V10H10V11H9V10H8V9H9V8H10V9Z" fill="#D9D9D9"/>
</svg>
