<svg width="24" height="24" viewBox="0 0 24 24" fill="none" xmlns="http://www.w3.org/2000/svg">
<path d="M15 3V4H17V5H18V6H19V7H20V9H21V15H20V17H19V18H18V19H17V20H15V21H9V20H7V19H6V18H5V17H4V15H3V9H4V7H5V6H6V5H7V4H9V3H15Z" fill="#FFEE00"/>
<path d="M15 22H9V21H15V22Z" fill="black"/>
<path d="M9 21H7V20H9V21Z" fill="black"/>
<path d="M17 21H15V20H17V21Z" fill="black"/>
<path d="M7 20H6V19H7V20Z" fill="black"/>
<path d="M18 20H17V19H18V20Z" fill="black"/>
<path d="M6 19H5V18H6V19Z" fill="black"/>
<path d="M19 19H18V18H19V19Z" fill="black"/>
<path d="M5 18H4V17H5V18Z" fill="black"/>
<path d="M20 18H19V17H20V18Z" fill="black"/>
<path d="M4 17H3V15H4V17Z" fill="black"/>
<path d="M21 17H20V15H21V17Z" fill="black"/>
<path d="M3 9V15H2V9H3Z" fill="black"/>
<path d="M22 15H21V9H22V15Z" fill="black"/>
<path d="M4 9H3V7H4V9Z" fill="black"/>
<path d="M21 9H20V7H21V9Z" fill="black"/>
<path d="M5 7H4V6H5V7Z" fill="black"/>
<path d="M20 7H19V6H20V7Z" fill="black"/>
<path d="M6 6H5V5H6V6Z" fill="black"/>
<path d="M19 6H18V5H19V6Z" fill="black"/>
<path d="M7 5H6V4H7V5Z" fill="black"/>
<path d="M18 5H17V4H18V5Z" fill="black"/>
<path d="M9 4H7V3H9V4Z" fill="black"/>
<path d="M17 4H15V3H17V4Z" fill="black"/>
<path d="M15 3H9V2H15V3Z" fill="black"/>
<path d="M17 16H16V17H8V16H7V14H8V15H9V16H15V15H16V14H17V16Z" fill="black"/>
<path d="M4 11H3V10H4V11Z" fill="black"/>
<path d="M18 7V8H19V9H18V10H17V11H14V10H13V9H11V10H10V11H7V10H6V9H5V8H6V7H18Z" fill="black"/>
<path d="M21 11H20V10H21V11Z" fill="black"/>
<path d="M5 10H4V9H5V10Z" fill="black"/>
<path d="M20 10H19V9H20V10Z" fill="black"/>
</svg>
